<svg xmlns="http://www.w3.org/2000/svg" viewBox="0 0 431.91 360.75" role="img" aria-label="Expertia">
  <path fill="#00e5ff" d="M41.46,0H203.22a41.46,41.46,0,0,1,41.46,41.46v0a41.46,41.46,0,0,1-41.46,41.46H0a0,0,0,0,1,0,0V41.46A41.46,41.46,0,0,1,41.46,0Z"/>
  <path fill="#ec4899" d="M0,138.74H298.05a41.59,41.59,0,0,1,41.59,41.59v0a41.59,41.59,0,0,1-41.59,41.59H0a0,0,0,0,1,0,0V138.74a0,0,0,0,1,0,0Z"/>
  <path fill="#7c3aed" d="M0,277.63H390.35a41.56,41.56,0,0,1,41.56,41.56v0a41.56,41.56,0,0,1-41.56,41.56H41.56A41.56,41.56,0,0,1,0,319.19V277.63A0,0,0,0,1,0,277.63Z"/>
</svg>
